<?xml version="1.0" encoding="UTF-8" standalone="no"?>
<!-- Created with Inkscape (http://www.inkscape.org/) -->

<svg
   xmlns:dc="http://purl.org/dc/elements/1.1/"
   xmlns:cc="http://creativecommons.org/ns#"
   xmlns:rdf="http://www.w3.org/1999/02/22-rdf-syntax-ns#"
   xmlns:svg="http://www.w3.org/2000/svg"
   xmlns="http://www.w3.org/2000/svg"
   version="1.1"
   width="215.07266"
   height="357.19382"
   id="svg8074">
  <defs
     id="defs8076" />
  <metadata
     id="metadata8079">
    <rdf:RDF>
      <cc:Work
         rdf:about="">
        <dc:format>image/svg+xml</dc:format>
        <dc:type
           rdf:resource="http://purl.org/dc/dcmitype/StillImage" />
        <dc:title></dc:title>
      </cc:Work>
    </rdf:RDF>
  </metadata>
  <path
     d="m 137.43137,267.2942 -1.3861,71.381 m 14.5534,17.3255 -14.5534,-17.3255 -20.0771,7.861"
     id="path5240"
     style="fill:none;stroke:#ffffff;stroke-width:3.70499992;stroke-linecap:butt;stroke-linejoin:miter;stroke-miterlimit:4;stroke-opacity:1;stroke-dasharray:none" />
  <path
     d="m 93.47727,267.8109 1.386,71.3811 m -27.1959,6.3068 27.1959,-6.3068 17.137,11.6336"
     id="path5242"
     style="fill:none;stroke:#ffffff;stroke-width:3.70499992;stroke-linecap:butt;stroke-linejoin:miter;stroke-miterlimit:4;stroke-opacity:1;stroke-dasharray:none" />
  <path
     d="M 213.69567,77.754 133.12037,0 102.76677,86.7429"
     id="path5244"
     style="fill:#43b0ff;fill-opacity:1;stroke:none" />
  <path
     d="m 212.12737,79.3818 -114.5216,-63.5846 -16.6324,9.1825 -19.2313,66.3566 123.1842,29.7999 z"
     id="path5246"
     style="fill:#b3b3b3;fill-opacity:1;stroke:#ffffff;stroke-width:3.91051173;stroke-linecap:round;stroke-linejoin:round;stroke-miterlimit:4;stroke-opacity:1;stroke-dasharray:none" />
  <path
     d="M 184.23327,80.248 83.39887,27.232 69.88497,72.2783 183.19377,93.7619 z"
     id="path5248"
     style="fill:#e6e6e6;fill-opacity:1;stroke:none" />
  <rect
     width="153.55443"
     height="221.01587"
     rx="0.25205356"
     ry="0.36834747"
     x="-214.65202"
     y="53.950081"
     transform="matrix(-0.98960202,-0.14383268,-0.22013773,0.9754688,0,0)"
     id="rect5250"
     style="fill:#22b8ff;fill-opacity:1;stroke:none" />
  <path
     d="m 143.69707,183.7084 c -7.4738,16.003 -28.2193,26.5882 -49.4205,24.3034 -21.2012,-2.2848 -35.6295,-16.6606 -34.8214,-33.3819 l 84.2419,9.0785 z"
     id="path5252"
     style="fill:#f6f6f6;fill-opacity:1;stroke:none" />
  <path
     d="m 212.99367,77.1294 -12.4744,6.9302 -50.5905,214.1433 13.8604,-4.1582 51.2835,-212.0641 z"
     id="path5254"
     style="fill:#0065c9;fill-opacity:1;stroke:none" />
  <path
     d="m 125.57517,139.58862 a 21.564496,17.306022 0 1 0 40.94963,10.8633 21.564496,17.306022 0 1 0 -40.94963,-10.8633 z"
     id="path5256"
     style="fill:#ffffff;fill-opacity:1;stroke:none" />
  <path
     d="m 135.85849,144.22338 a 10.299369,9.2599832 0 1 0 20.59873,0 10.299369,9.2599832 0 1 0 -20.59873,0 z"
     id="path5258"
     style="fill:#000000;fill-opacity:1;stroke:none" />
  <path
     d="m 60.134769,122.2283 a 19.676928,15.791203 0 1 0 37.365253,9.91241 19.676928,15.791203 0 1 0 -37.365253,-9.91241 z"
     id="path5260"
     style="fill:#ffffff;fill-opacity:1;stroke:none" />
  <path
     d="m 66.989625,126.69174 a 10.432427,9.3796136 0 1 0 20.86485,0 10.432427,9.3796136 0 1 0 -20.86485,0 z"
     id="path5262"
     style="fill:#000000;fill-opacity:1;stroke:none" />
</svg>
